<?xml version="1.0" standalone="no"?>
<!DOCTYPE svg PUBLIC "-//W3C//DTD SVG 1.1//EN"
 "http://www.w3.org/Graphics/SVG/1.1/DTD/svg11.dtd">
<svg width="640px" height="480px" version="1.1"
 xmlns="http://www.w3.org/2000/svg" xmlns:xlink="http://www.w3.org/1999/xlink">
<path d="M 447.845110,423.326064 A37.341248,37.341248 0.000000 1,1 461.746589,407.340756" fill="none" stroke ="blue" stroke-width="1" />
<ellipse transform="translate(130.783245 387.928484) rotate(-28.097305)" rx="37.418345" ry="37.063842" stroke="red" fill="none" stroke-width= "1" /> 
<ellipse cx="130.957005" cy="388.050074" rx="43.261225" ry="43.261225" stroke="blue" stroke-width="1" fill="none" /> 
<ellipse cx="427.562974" cy="391.278140" rx="43.325817" ry="43.325817" stroke="blue" stroke-width="1" fill="none" /> 
<ellipse cx="127.485236" cy="85.520626" rx="37.005413" ry="37.005413" stroke="blue" stroke-width="1" fill="none" /> 
<path d="M 471.818357,84.997741 A43.024309,43.024309 0.000000 1,1 471.795870,82.972418" fill="none" stroke ="blue" stroke-width="1" />
<path d="M 391.708377,83.064216 A37.071642,36.072102 -86.031996 1,1 391.684492,84.978510" fill="none" stroke ="red" stroke-width="1" />
<path d="M 486.591892,161.988706 A6075.806716,6075.806716 0.000000 0,1 486.325742,407.006923" fill="none" stroke ="blue" stroke-width="1" />
<line x1="354.373248" y1="442.468419" x2="444.375943" y2="442.228289"  fill="none" stroke ="green" stroke-width="1" />
<line x1="328.122156" y1="409.371859" x2="345.891280" y2="393.288193"  fill="none" stroke ="green" stroke-width="1" />
<path d="M 307.828018,204.196170 A45.712558,43.978585 68.434407 1,1 236.375254,252.844123" fill="none" stroke ="red" stroke-width="1" />
<path d="M 484.723676,35.857016 A1722.642724,1722.642724 0.000000 0,1 486.739976,161.014973" fill="none" stroke ="blue" stroke-width="1" />
<path d="M 311.077002,441.457996 A551.503445,551.503445 0.000000 0,1 240.028474,440.626855" fill="none" stroke ="blue" stroke-width="1" />
<path d="M 345.940889,441.333340 A235.082174,235.082174 0.000000 0,1 311.893797,441.876356" fill="none" stroke ="blue" stroke-width="1" />
<path d="M 285.291340,227.186337 A10.592140,10.592140 0.000000 1,1 277.734008,227.345262" fill="none" stroke ="blue" stroke-width="1" />
<path d="M 284.652189,219.985051 A17.450748,17.450748 0.000000 1,1 276.195245,220.594481" fill="none" stroke ="blue" stroke-width="1" />
<path d="M 238.006996,441.498934 A2347.040223,2347.040223 0.000000 0,1 123.024701,440.294085" fill="none" stroke ="blue" stroke-width="1" />
<path d="M 277.403825,236.980002 A4.339760,4.339760 0.000000 1,1 280.925787,241.387966" fill="none" stroke ="blue" stroke-width="1" />
<path d="M 275.053763,239.977347 A7.193740,7.193740 0.000000 1,1 277.171377,242.787165" fill="none" stroke ="blue" stroke-width="1" />
<path d="M 235.149978,251.540904 A44.786386,44.786386 0.000000 0,1 306.164972,204.040702" fill="none" stroke ="blue" stroke-width="1" />
<ellipse cx="277.505693" cy="237.334834" rx="36.960447" ry="36.960447" stroke="blue" stroke-width="1" fill="none" /> 
<path d="M 141.379255,44.792545 A42.992625,42.992625 0.000000 1,1 84.829179,92.026573" fill="none" stroke ="blue" stroke-width="1" />
<path d="M 162.483800,373.782095 A10.601509,10.601509 0.000000 0,1 149.333608,357.347156" fill="none" stroke ="blue" stroke-width="1" />
<path d="M 375.917562,395.037586 A109.044659,109.044659 0.000000 0,1 368.278197,328.073216" fill="none" stroke ="blue" stroke-width="1" />
<path d="M 63.767819,412.308994 A21.325635,21.325635 0.000000 0,1 85.940690,385.848098" fill="none" stroke ="blue" stroke-width="1" />
<path d="M 165.150237,380.291450 A17.497505,17.497505 0.000000 0,1 142.419118,355.269718" fill="none" stroke ="blue" stroke-width="1" />
<path d="M 160.942711,370.907423 A7.347525,7.347525 0.000000 0,1 151.245703,360.188412" fill="none" stroke ="blue" stroke-width="1" />
<line x1="347.525034" y1="413.311454" x2="351.862204" y2="427.267445"  fill="none" stroke ="green" stroke-width="1" />
<path d="M 127.769852,334.753314 A39.171940,39.171940 0.000000 0,1 150.162739,324.463523" fill="none" stroke ="blue" stroke-width="1" />
<path d="M 396.724789,99.013988 A17.382056,17.382056 0.000000 0,1 426.602164,103.160017" fill="none" stroke ="blue" stroke-width="1" />
<path d="M 139.453205,117.232459 A16.897108,16.897108 0.000000 0,1 150.388142,94.367006" fill="none" stroke ="blue" stroke-width="1" />
<path d="M 109.854349,373.435468 A12.572651,12.572651 0.000000 0,1 122.888429,363.762261" fill="none" stroke ="blue" stroke-width="1" />
<path d="M 403.730427,109.933844 A7.087902,7.087902 0.000000 1,1 416.876252,112.926166" fill="none" stroke ="blue" stroke-width="1" />
<path d="M 116.948093,96.539568 A8.093587,8.093587 0.000000 0,1 111.123650,83.797757" fill="none" stroke ="blue" stroke-width="1" />
<line x1="162.431063" y1="234.442475" x2="161.456115" y2="224.415730"  fill="none" stroke ="green" stroke-width="1" />
<line x1="331.619270" y1="440.551098" x2="336.005334" y2="425.373679"  fill="none" stroke ="green" stroke-width="1" />
<line x1="266.457858" y1="76.654470" x2="260.171707" y2="52.914042"  fill="none" stroke ="green" stroke-width="1" />
<path d="M 152.215889,323.671328 A42.454420,42.454420 0.000000 0,1 176.101147,403.183835" fill="none" stroke ="blue" stroke-width="1" />
<path d="M 400.908472,105.487520 A10.832834,10.832834 0.000000 0,1 420.212980,104.883221" fill="none" stroke ="blue" stroke-width="1" />
<line x1="113.579264" y1="85.318696" x2="127.159654" y2="96.769843"  fill="none" stroke ="green" stroke-width="1" />
<line x1="126.017126" y1="366.949046" x2="113.692776" y2="375.939824"  fill="none" stroke ="green" stroke-width="1" />
<line x1="264.515623" y1="53.426789" x2="269.925951" y2="73.315166"  fill="none" stroke ="green" stroke-width="1" />
<path d="M 400.928242,281.083603 A395.032383,395.032383 0.000000 0,1 380.116148,261.882825" fill="none" stroke ="blue" stroke-width="1" />
<line x1="168.877987" y1="170.063120" x2="178.188119" y2="176.787610"  fill="none" stroke ="green" stroke-width="1" />
<line x1="344.842794" y1="427.945455" x2="343.278414" y2="412.978314"  fill="none" stroke ="green" stroke-width="1" />
<path d="M 313.197636,192.405783 A143.059438,143.059438 0.000000 0,1 325.672059,164.807603" fill="none" stroke ="blue" stroke-width="1" />
<line x1="371.857181" y1="180.611246" x2="383.917325" y2="164.986568"  fill="none" stroke ="green" stroke-width="1" />
<path d="M 145.800674,115.058178 A13.691560,13.691560 0.000000 0,1 151.250364,99.896459" fill="none" stroke ="blue" stroke-width="1" />
<path d="M 148.521946,111.860389 A6.691751,6.691751 0.000000 0,1 155.928070,103.506091" fill="none" stroke ="blue" stroke-width="1" />
<line x1="356.513266" y1="148.132862" x2="356.268879" y2="136.888173"  fill="none" stroke ="green" stroke-width="1" />
<line x1="140.390666" y1="149.829074" x2="160.525591" y2="152.597904"  fill="none" stroke ="green" stroke-width="1" />
<line x1="369.177391" y1="409.152329" x2="380.435447" y2="399.161406"  fill="none" stroke ="green" stroke-width="1" />
<line x1="160.660436" y1="208.079516" x2="146.477998" y2="197.030134"  fill="none" stroke ="green" stroke-width="1" />
<path d="M 198.067630,345.450919 A41495.864945,41495.864945 0.000000 0,1 203.040395,364.194112" fill="none" stroke ="blue" stroke-width="1" />
<path d="M 425.460025,370.883409 A17.347929,17.347929 0.000000 0,1 394.837632,377.909038" fill="none" stroke ="blue" stroke-width="1" />
<path d="M 418.048443,371.519133 A10.510859,10.510859 0.000000 0,1 399.154499,371.406127" fill="none" stroke ="blue" stroke-width="1" />
<path d="M 337.970415,34.480803 A677.823787,677.823787 0.000000 0,1 404.875447,33.975954" fill="none" stroke ="blue" stroke-width="1" />
<line x1="431.558831" y1="277.913947" x2="439.642786" y2="265.803756"  fill="none" stroke ="green" stroke-width="1" />
<path d="M 227.131337,187.867136 A30.379463,30.379463 0.000000 0,1 195.167237,170.920148" fill="none" stroke ="blue" stroke-width="1" />
<line x1="353.293447" y1="218.093525" x2="350.458662" y2="202.922512"  fill="none" stroke ="green" stroke-width="1" />
<path d="M 175.990156,34.671600 A3318.224815,3318.224815 0.000000 0,1 336.986017,33.753363" fill="none" stroke ="blue" stroke-width="1" />
<path d="M 444.208758,74.732456 A7.303038,7.303038 0.000000 0,1 443.114656,88.416140" fill="none" stroke ="blue" stroke-width="1" />
<path d="M 431.689298,144.478307 A41.137896,41.137896 0.000000 0,1 385.463645,76.599169" fill="none" stroke ="blue" stroke-width="1" />
<path d="M 420.554937,285.359728 A94.778004,94.778004 0.000000 0,1 407.190402,263.207588" fill="none" stroke ="blue" stroke-width="1" />
<line x1="174.441110" y1="76.957950" x2="193.793562" y2="98.782158"  fill="none" stroke ="green" stroke-width="1" />
<line x1="444.633149" y1="137.010681" x2="451.133816" y2="124.642430"  fill="none" stroke ="green" stroke-width="1" />
<line x1="123.605966" y1="103.887619" x2="116.064945" y2="96.445859"  fill="none" stroke ="green" stroke-width="1" />
<line x1="235.980126" y1="132.012752" x2="239.262325" y2="153.334763"  fill="none" stroke ="green" stroke-width="1" />
<path d="M 80.495969,272.974612 A1598.017843,1598.017843 0.000000 0,1 84.197614,55.358337" fill="none" stroke ="blue" stroke-width="1" />
<line x1="431.249208" y1="101.358084" x2="439.291244" y2="108.223116"  fill="none" stroke ="green" stroke-width="1" />
<line x1="393.885910" y1="279.885774" x2="379.816627" y2="266.413793"  fill="none" stroke ="green" stroke-width="1" />
<line x1="436.211235" y1="87.336728" x2="444.550992" y2="76.748136"  fill="none" stroke ="green" stroke-width="1" />
<line x1="170.801982" y1="71.736060" x2="178.995468" y2="82.172952"  fill="none" stroke ="green" stroke-width="1" />
<line x1="165.427037" y1="177.597513" x2="153.162760" y2="174.237187"  fill="none" stroke ="green" stroke-width="1" />
<line x1="302.557337" y1="228.791703" x2="310.607282" y2="235.645809"  fill="none" stroke ="green" stroke-width="1" />
<path d="M 374.984236,346.991485 A41.211640,41.211640 0.000000 0,1 430.047590,329.907190" fill="none" stroke ="blue" stroke-width="1" />
<path d="M 448.657923,361.104819 A36.689262,36.689262 0.000000 0,1 406.195714,413.785369" fill="none" stroke ="blue" stroke-width="1" />
<line x1="312.810370" y1="198.273929" x2="305.408183" y2="182.635946"  fill="none" stroke ="green" stroke-width="1" />
<line x1="350.820675" y1="429.341424" x2="352.767342" y2="440.686370"  fill="none" stroke ="green" stroke-width="1" />
<line x1="79.439571" y1="304.350557" x2="80.439957" y2="358.151683"  fill="none" stroke ="green" stroke-width="1" />
<line x1="350.688273" y1="389.442987" x2="366.876890" y2="374.377031"  fill="none" stroke ="green" stroke-width="1" />
<path d="M 411.223228,360.427067 A7.251757,7.251757 0.000000 1,1 401.340919,367.008267" fill="none" stroke ="blue" stroke-width="1" />
<path d="M 188.230110,275.102389 A117.831653,117.831653 0.000000 0,1 169.210049,244.078739" fill="none" stroke ="blue" stroke-width="1" />
<line x1="418.166720" y1="35.016475" x2="405.554604" y2="34.151807"  fill="none" stroke ="green" stroke-width="1" />
<line x1="344.817303" y1="186.692019" x2="340.802188" y2="204.415141"  fill="none" stroke ="green" stroke-width="1" />
<line x1="97.180862" y1="287.617314" x2="84.141936" y2="279.761853"  fill="none" stroke ="green" stroke-width="1" />
<path d="M 356.995838,295.865650 A1216.157368,1216.157368 0.000000 0,1 363.579106,355.866304" fill="none" stroke ="blue" stroke-width="1" />
<line x1="437.485275" y1="367.503020" x2="428.860046" y2="376.374330"  fill="none" stroke ="green" stroke-width="1" />
<path d="M 79.067176,303.065129 A134.526499,134.526499 0.000000 0,1 79.971095,275.540852" fill="none" stroke ="blue" stroke-width="1" />
<line x1="438.548969" y1="95.458331" x2="432.574496" y2="88.398754"  fill="none" stroke ="green" stroke-width="1" />
<line x1="59.186411" y1="165.661267" x2="59.871906" y2="145.599268"  fill="none" stroke ="green" stroke-width="1" />
<line x1="377.816199" y1="396.522976" x2="365.794687" y2="407.068438"  fill="none" stroke ="green" stroke-width="1" />
<line x1="222.230243" y1="240.704056" x2="211.684014" y2="237.504524"  fill="none" stroke ="green" stroke-width="1" />
<path d="M 300.021301,359.893656 A33.046295,33.046295 0.000000 0,1 282.171196,349.842790" fill="none" stroke ="blue" stroke-width="1" />
<line x1="195.601390" y1="170.747996" x2="176.429637" y2="149.885570"  fill="none" stroke ="green" stroke-width="1" />
<path d="M 196.227953,109.994233 A39.970471,39.970471 0.000000 0,1 160.964401,150.698972" fill="none" stroke ="blue" stroke-width="1" />
<line x1="80.202165" y1="359.350352" x2="79.833348" y2="384.381753"  fill="none" stroke ="green" stroke-width="1" />
<path d="M 114.932379,128.145305 A94.988539,94.988539 0.000000 0,1 143.877643,149.006604" fill="none" stroke ="blue" stroke-width="1" />
<path d="M 126.424731,321.647747 A54.521645,54.521645 0.000000 0,1 125.973649,336.161759" fill="none" stroke ="blue" stroke-width="1" />
<line x1="353.608171" y1="171.710042" x2="358.253669" y2="150.114885"  fill="none" stroke ="green" stroke-width="1" />
<line x1="355.467613" y1="130.591745" x2="351.009235" y2="151.692069"  fill="none" stroke ="green" stroke-width="1" />
<line x1="156.775382" y1="157.169275" x2="130.187083" y2="148.168624"  fill="none" stroke ="green" stroke-width="1" />
<path d="M 352.878812,88.174925 A1251.391737,1251.391737 0.000000 0,1 338.343173,152.341624" fill="none" stroke ="blue" stroke-width="1" />
<line x1="235.161811" y1="161.791519" x2="232.379851" y2="135.571435"  fill="none" stroke ="green" stroke-width="1" />
<path d="M 171.222096,211.733059 A14.910240,14.910240 0.000000 0,1 174.962364,229.980764" fill="none" stroke ="blue" stroke-width="1" />
<line x1="446.029511" y1="265.975759" x2="438.929594" y2="272.651277"  fill="none" stroke ="green" stroke-width="1" />
<line x1="234.743266" y1="418.023450" x2="241.039231" y2="440.855465"  fill="none" stroke ="green" stroke-width="1" />
<line x1="354.221458" y1="90.657940" x2="358.286933" y2="109.608425"  fill="none" stroke ="green" stroke-width="1" />
<line x1="336.842512" y1="308.158830" x2="326.644409" y2="298.365112"  fill="none" stroke ="green" stroke-width="1" />
<line x1="119.500050" y1="364.525130" x2="127.001479" y2="358.276845"  fill="none" stroke ="green" stroke-width="1" />
<path d="M 66.703143,0.000889 A1051.022130,1051.022130 0.000000 0,1 58.257247,136.160400" fill="none" stroke ="blue" stroke-width="1" />
<line x1="54.054621" y1="263.161166" x2="53.448416" y2="236.838764"  fill="none" stroke ="green" stroke-width="1" />
<path d="M 420.023047,34.307853 A1951.035472,1951.035472 0.000000 0,1 485.963426,34.260344" fill="none" stroke ="blue" stroke-width="1" />
<line x1="87.343124" y1="238.442559" x2="94.352533" y2="228.109759"  fill="none" stroke ="green" stroke-width="1" />
<line x1="445.598186" y1="88.102262" x2="440.423659" y2="94.204262"  fill="none" stroke ="green" stroke-width="1" />
<line x1="73.926320" y1="12.965689" x2="71.281935" y2="61.910493"  fill="none" stroke ="green" stroke-width="1" />
<line x1="410.221270" y1="411.460714" x2="405.305620" y2="401.419421"  fill="none" stroke ="green" stroke-width="1" />
<line x1="357.508322" y1="249.410553" x2="356.638130" y2="234.316591"  fill="none" stroke ="green" stroke-width="1" />
<line x1="119.364042" y1="226.873505" x2="116.951306" y2="244.555972"  fill="none" stroke ="green" stroke-width="1" />
<path d="M 173.955046,333.438252 A47.371562,47.371562 0.000000 0,1 194.692743,360.502838" fill="none" stroke ="blue" stroke-width="1" />
<line x1="75.724005" y1="0.191096" x2="73.557559" y2="12.179069"  fill="none" stroke ="green" stroke-width="1" />
<line x1="227.778847" y1="231.802829" x2="228.885648" y2="245.664074"  fill="none" stroke ="green" stroke-width="1" />
<path d="M 60.523169,237.327110 A63.693690,63.693690 0.000000 0,1 63.887606,199.122663" fill="none" stroke ="blue" stroke-width="1" />
<line x1="447.417072" y1="346.386521" x2="434.355832" y2="331.892273"  fill="none" stroke ="green" stroke-width="1" />
<path d="M 468.413650,426.754141 A9.110287,9.110287 0.000000 0,1 457.146451,440.737017" fill="none" stroke ="blue" stroke-width="1" />
<line x1="413.859707" y1="290.811327" x2="407.251726" y2="272.536784"  fill="none" stroke ="green" stroke-width="1" />
<path d="M 446.892094,258.224257 A11.365964,11.365964 0.000000 0,1 447.234115,278.536539" fill="none" stroke ="blue" stroke-width="1" />
<path d="M 172.594324,73.197410 A33.677242,33.677242 0.000000 0,1 195.413085,106.967299" fill="none" stroke ="blue" stroke-width="1" />
<path d="M 55.541258,206.807873 A92.020288,92.020288 0.000000 0,1 53.379383,232.225006" fill="none" stroke ="blue" stroke-width="1" />
<path d="M 53.757357,258.008928 A54.363320,54.363320 0.000000 0,1 51.050395,275.344576" fill="none" stroke ="blue" stroke-width="1" />
<line x1="211.913037" y1="311.854217" x2="220.236208" y2="327.087429"  fill="none" stroke ="green" stroke-width="1" />
<line x1="345.196908" y1="388.877923" x2="327.014483" y2="404.536960"  fill="none" stroke ="green" stroke-width="1" />
<line x1="298.843132" y1="177.027482" x2="303.527798" y2="193.367886"  fill="none" stroke ="green" stroke-width="1" />
<path d="M 407.814989,146.856363 A41.867780,41.867780 0.000000 0,1 383.724523,131.786406" fill="none" stroke ="blue" stroke-width="1" />
<line x1="107.184201" y1="457.653584" x2="115.595245" y2="463.170366"  fill="none" stroke ="green" stroke-width="1" />
<line x1="124.269438" y1="138.272263" x2="139.505073" y2="149.193543"  fill="none" stroke ="green" stroke-width="1" />
<path d="M 180.025438,172.108560 A119.348440,119.348440 0.000000 0,1 155.469608,156.909968" fill="none" stroke ="blue" stroke-width="1" />
<line x1="104.375102" y1="35.637751" x2="84.366370" y2="35.798099"  fill="none" stroke ="green" stroke-width="1" />
<line x1="338.329933" y1="274.237330" x2="323.829261" y2="252.651891"  fill="none" stroke ="green" stroke-width="1" />
<path d="M 483.259661,387.527263 A26.695360,26.695360 0.000000 0,1 472.063983,361.176322" fill="none" stroke ="blue" stroke-width="1" />
<path d="M 92.145638,62.093111 A41.749516,41.749516 0.000000 0,1 140.355251,44.919008" fill="none" stroke ="blue" stroke-width="1" />
<path d="M 54.821267,330.998602 A902.765240,902.765240 0.000000 0,1 60.437273,237.273813" fill="none" stroke ="blue" stroke-width="1" />
<line x1="43.466645" y1="459.408279" x2="44.455055" y2="449.261039"  fill="none" stroke ="green" stroke-width="1" />
<path d="M 346.325611,387.857803 A67.117945,67.117945 0.000000 0,1 366.759883,367.620917" fill="none" stroke ="blue" stroke-width="1" />
<line x1="117.198353" y1="463.734455" x2="107.129346" y2="478.300817"  fill="none" stroke ="green" stroke-width="1" />
<path d="M 449.641488,161.839142 A89.643379,89.643379 0.000000 0,1 459.697351,144.773167" fill="none" stroke ="blue" stroke-width="1" />
<line x1="70.406327" y1="65.552044" x2="69.347181" y2="86.873618"  fill="none" stroke ="green" stroke-width="1" />
<line x1="170.471287" y1="437.011029" x2="168.984696" y2="421.670557"  fill="none" stroke ="green" stroke-width="1" />
<line x1="342.918804" y1="245.859801" x2="351.577557" y2="253.463705"  fill="none" stroke ="green" stroke-width="1" />
<line x1="161.890092" y1="35.238016" x2="150.608502" y2="34.798048"  fill="none" stroke ="green" stroke-width="1" />
<path d="M 43.757353,448.031551 A518.427378,518.427378 0.000000 0,1 45.729787,394.976054" fill="none" stroke ="blue" stroke-width="1" />
<line x1="343.934539" y1="50.608083" x2="343.759306" y2="68.118839"  fill="none" stroke ="green" stroke-width="1" />
<line x1="223.567011" y1="183.360766" x2="245.737756" y2="195.417659"  fill="none" stroke ="green" stroke-width="1" />
<line x1="250.106214" y1="201.553620" x2="235.480876" y2="193.382980"  fill="none" stroke ="green" stroke-width="1" />
<line x1="362.547240" y1="159.048065" x2="371.930219" y2="148.172641"  fill="none" stroke ="green" stroke-width="1" />
<line x1="485.647717" y1="176.350160" x2="470.623303" y2="176.820825"  fill="none" stroke ="green" stroke-width="1" />
<line x1="57.070959" y1="179.553896" x2="58.803014" y2="165.554233"  fill="none" stroke ="green" stroke-width="1" />
<path d="M 298.034940,250.232461 A18.231238,18.231238 0.000000 0,1 270.569277,261.687662" fill="none" stroke ="blue" stroke-width="1" />
<line x1="169.846905" y1="167.482851" x2="159.774770" y2="160.081009"  fill="none" stroke ="green" stroke-width="1" />
<path d="M 395.852704,151.527117 A161.282444,161.282444 0.000000 0,1 425.868308,163.257571" fill="none" stroke ="blue" stroke-width="1" />
<path d="M 397.022135,332.090810 A54.266971,54.266971 0.000000 0,1 427.517257,333.495513" fill="none" stroke ="blue" stroke-width="1" />
<path d="M 412.945066,169.578067 A25.961178,25.961178 0.000000 0,1 408.615248,197.440402" fill="none" stroke ="blue" stroke-width="1" />
<path d="M 56.003798,467.007649 A234.204613,234.204613 0.000000 0,1 63.341428,410.600596" fill="none" stroke ="blue" stroke-width="1" />
<line x1="473.709860" y1="415.596048" x2="485.825220" y2="409.793013"  fill="none" stroke ="green" stroke-width="1" />
<line x1="355.501329" y1="478.140919" x2="351.641414" y2="448.155068"  fill="none" stroke ="green" stroke-width="1" />
<line x1="257.782869" y1="60.577843" x2="258.307618" y2="70.680442"  fill="none" stroke ="green" stroke-width="1" />
<line x1="55.069060" y1="334.262238" x2="52.644364" y2="373.094989"  fill="none" stroke ="green" stroke-width="1" />
<line x1="47.927735" y1="310.562185" x2="51.279161" y2="300.037235"  fill="none" stroke ="green" stroke-width="1" />
<path d="M 329.248354,235.799335 A71.922507,71.922507 0.000000 0,1 322.154409,215.969244" fill="none" stroke ="blue" stroke-width="1" />
<line x1="83.328021" y1="259.749377" x2="88.023175" y2="241.526696"  fill="none" stroke ="green" stroke-width="1" />
<line x1="431.648134" y1="336.957883" x2="447.032997" y2="350.444769"  fill="none" stroke ="green" stroke-width="1" />
<path d="M 48.361856,316.924287 A79.932017,79.932017 0.000000 0,1 42.132794,367.991360" fill="none" stroke ="blue" stroke-width="1" />
<line x1="411.291668" y1="398.419020" x2="417.581897" y2="410.898743"  fill="none" stroke ="green" stroke-width="1" />
<path d="M 193.747257,88.866900 A100.053449,100.053449 0.000000 0,1 203.924605,107.548666" fill="none" stroke ="blue" stroke-width="1" />
<path d="M 229.199513,115.847243 A102.596364,102.596364 0.000000 0,1 213.317681,94.273861" fill="none" stroke ="blue" stroke-width="1" />
<path d="M 206.172161,221.909288 A10.864387,10.864387 0.000000 0,1 190.243323,228.293738" fill="none" stroke ="blue" stroke-width="1" />
<path d="M 62.580038,192.975934 A906.657710,906.657710 0.000000 0,1 69.630131,86.330454" fill="none" stroke ="blue" stroke-width="1" />
<line x1="457.485525" y1="120.712053" x2="460.037034" y2="139.455041"  fill="none" stroke ="green" stroke-width="1" />
<line x1="50.962546" y1="299.299231" x2="52.629071" y2="279.230020"  fill="none" stroke ="green" stroke-width="1" />
<line x1="112.491868" y1="132.968476" x2="118.905310" y2="158.244179"  fill="none" stroke ="green" stroke-width="1" />
<line x1="188.877585" y1="139.959373" x2="198.849591" y2="151.234133"  fill="none" stroke ="green" stroke-width="1" />
<line x1="441.772262" y1="220.362438" x2="426.643089" y2="226.282316"  fill="none" stroke ="green" stroke-width="1" />
<line x1="46.297295" y1="389.387834" x2="46.489038" y2="379.343769"  fill="none" stroke ="green" stroke-width="1" />
<line x1="177.963040" y1="219.106261" x2="185.675244" y2="214.458370"  fill="none" stroke ="green" stroke-width="1" />
<line x1="223.438051" y1="427.313718" x2="227.319992" y2="434.792830"  fill="none" stroke ="green" stroke-width="1" />
<line x1="209.097289" y1="241.146979" x2="199.248266" y2="261.814606"  fill="none" stroke ="green" stroke-width="1" />
<line x1="348.705005" y1="345.357825" x2="340.021732" y2="367.132898"  fill="none" stroke ="green" stroke-width="1" />
<line x1="326.096019" y1="181.646632" x2="331.216053" y2="164.181821"  fill="none" stroke ="green" stroke-width="1" />
<line x1="94.857893" y1="351.535760" x2="86.499887" y2="339.638523"  fill="none" stroke ="green" stroke-width="1" />
<line x1="111.642449" y1="161.949620" x2="105.967838" y2="144.264991"  fill="none" stroke ="green" stroke-width="1" />
<line x1="56.507047" y1="207.854968" x2="58.739694" y2="194.477591"  fill="none" stroke ="green" stroke-width="1" />
<path d="M 54.893742,227.044781 A14.747235,14.747235 0.000000 0,1 54.767438,238.790037" fill="none" stroke ="blue" stroke-width="1" />
<line x1="426.900990" y1="314.417566" x2="441.719212" y2="305.369853"  fill="none" stroke ="green" stroke-width="1" />
<line x1="149.335076" y1="221.887018" x2="143.191657" y2="201.478654"  fill="none" stroke ="green" stroke-width="1" />
<line x1="445.531077" y1="340.694380" x2="459.787353" y2="359.993762"  fill="none" stroke ="green" stroke-width="1" />
<line x1="172.681839" y1="408.142074" x2="173.210821" y2="421.871693"  fill="none" stroke ="green" stroke-width="1" />
<line x1="380.850314" y1="141.003203" x2="388.908543" y2="162.835801"  fill="none" stroke ="green" stroke-width="1" />
<line x1="336.023205" y1="170.896552" x2="337.926832" y2="159.342351"  fill="none" stroke ="green" stroke-width="1" />
<line x1="318.194739" y1="210.594233" x2="313.687216" y2="200.376969"  fill="none" stroke ="green" stroke-width="1" />
<line x1="138.300611" y1="211.821930" x2="133.382413" y2="195.547210"  fill="none" stroke ="green" stroke-width="1" />
<line x1="163.636465" y1="212.362054" x2="152.043795" y2="224.535739"  fill="none" stroke ="green" stroke-width="1" />
<line x1="469.475779" y1="429.410155" x2="473.905568" y2="416.711247"  fill="none" stroke ="green" stroke-width="1" />
<line x1="399.344432" y1="180.908733" x2="403.743908" y2="200.764830"  fill="none" stroke ="green" stroke-width="1" />
<line x1="211.329427" y1="292.701676" x2="197.195552" y2="269.182365"  fill="none" stroke ="green" stroke-width="1" />
<path d="M 148.518423,310.631923 A13.906848,13.906848 0.000000 0,1 157.012564,319.996593" fill="none" stroke ="blue" stroke-width="1" />
<line x1="46.976466" y1="378.129921" x2="47.466204" y2="368.032422"  fill="none" stroke ="green" stroke-width="1" />
<line x1="43.062654" y1="474.452620" x2="42.169836" y2="459.357562"  fill="none" stroke ="green" stroke-width="1" />
<path d="M 328.222887,192.083159 A64.225509,64.225509 0.000000 0,1 331.372865,176.124332" fill="none" stroke ="blue" stroke-width="1" />
<line x1="352.839452" y1="256.035229" x2="363.934352" y2="263.758052"  fill="none" stroke ="green" stroke-width="1" />
<line x1="324.071369" y1="144.212848" x2="320.635331" y2="124.159054"  fill="none" stroke ="green" stroke-width="1" />
<path d="M 361.814122,295.765543 A85.913887,85.913887 0.000000 0,1 364.853683,326.901436" fill="none" stroke ="blue" stroke-width="1" />
<path d="M 352.845718,123.675382 A206.080226,206.080226 0.000000 0,1 341.732453,157.314126" fill="none" stroke ="blue" stroke-width="1" />
<path d="M 408.269389,276.837199 A11.250620,11.250620 0.000000 0,1 407.342258,267.126189" fill="none" stroke ="blue" stroke-width="1" />
<path d="M 454.182652,121.776486 A24.305720,24.305720 0.000000 0,1 446.485081,144.423122" fill="none" stroke ="blue" stroke-width="1" />
<line x1="343.791382" y1="234.489592" x2="346.368521" y2="219.502857"  fill="none" stroke ="green" stroke-width="1" />
<path d="M 337.414948,300.150262 A44.407919,44.407919 0.000000 0,1 313.170117,267.969953" fill="none" stroke ="blue" stroke-width="1" />
<path d="M 125.063448,342.104904 A356.677908,356.677908 0.000000 0,1 149.737505,328.482987" fill="none" stroke ="blue" stroke-width="1" />
<line x1="211.685197" y1="115.831427" x2="217.388744" y2="128.457585"  fill="none" stroke ="green" stroke-width="1" />
<path d="M 379.547180,125.847666 A49.396041,49.396041 0.000000 0,1 384.212197,83.748990" fill="none" stroke ="blue" stroke-width="1" />
<line x1="313.556744" y1="178.829328" x2="320.673565" y2="168.157387"  fill="none" stroke ="green" stroke-width="1" />
<line x1="155.910755" y1="330.527036" x2="174.300779" y2="332.549786"  fill="none" stroke ="green" stroke-width="1" />
<path d="M 49.335699,435.991461 A277.351849,277.351849 0.000000 0,1 52.806841,393.128891" fill="none" stroke ="blue" stroke-width="1" />
<line x1="301.648758" y1="282.646617" x2="317.148767" y2="287.191294"  fill="none" stroke ="green" stroke-width="1" />
<line x1="351.570587" y1="303.096648" x2="349.471520" y2="325.633990"  fill="none" stroke ="green" stroke-width="1" />
<line x1="53.235156" y1="375.404014" x2="50.951960" y2="387.180731"  fill="none" stroke ="green" stroke-width="1" />
<line x1="406.957307" y1="409.185287" x2="399.276159" y2="405.852822"  fill="none" stroke ="green" stroke-width="1" />
<line x1="240.433343" y1="304.389043" x2="239.144602" y2="286.800293"  fill="none" stroke ="green" stroke-width="1" />
<line x1="353.578721" y1="279.403047" x2="353.332194" y2="294.378411"  fill="none" stroke ="green" stroke-width="1" />
<line x1="33.443742" y1="460.667732" x2="31.094880" y2="478.187995"  fill="none" stroke ="green" stroke-width="1" />
<path d="M 47.836715,477.181900 A56.486114,56.486114 0.000000 0,1 54.813811,444.895964" fill="none" stroke ="blue" stroke-width="1" />
<path d="M 83.907789,51.382568 A12.287214,12.287214 0.000000 0,1 81.001150,35.397939" fill="none" stroke ="blue" stroke-width="1" />
<line x1="195.599070" y1="142.929266" x2="193.650096" y2="130.740916"  fill="none" stroke ="green" stroke-width="1" />
<path d="M 382.468706,395.753980 A75.081805,75.081805 0.000000 0,1 374.108168,354.848052" fill="none" stroke ="blue" stroke-width="1" />
<path d="M 163.431376,403.150495 A82.090091,82.090091 0.000000 0,1 116.977598,416.898254" fill="none" stroke ="blue" stroke-width="1" />
<path d="M 185.869080,51.212583 A188.572753,188.572753 0.000000 0,1 206.839062,66.195483" fill="none" stroke ="blue" stroke-width="1" />
<line x1="411.866294" y1="0.492797" x2="408.695199" y2="30.684888"  fill="none" stroke ="green" stroke-width="1" />
<path d="M 306.576832,159.447645 A9.943527,9.943527 0.000000 0,1 312.078085,142.522503" fill="none" stroke ="blue" stroke-width="1" />
<line x1="142.480645" y1="479.057510" x2="113.406531" y2="458.967569"  fill="none" stroke ="green" stroke-width="1" />
<path d="M 71.621204,274.908886 A223.811370,223.811370 0.000000 0,1 73.977839,305.010859" fill="none" stroke ="blue" stroke-width="1" />
<line x1="496.561749" y1="342.981829" x2="495.276596" y2="368.234499"  fill="none" stroke ="green" stroke-width="1" />
<line x1="161.253154" y1="55.636342" x2="160.933648" y2="38.119370"  fill="none" stroke ="green" stroke-width="1" />
<path d="M 496.098106,136.995444 A1185.259710,1185.259710 0.000000 0,1 495.341089,46.950901" fill="none" stroke ="blue" stroke-width="1" />
<line x1="347.533142" y1="130.789981" x2="342.520411" y2="150.786789"  fill="none" stroke ="green" stroke-width="1" />
<line x1="364.429438" y1="244.355272" x2="369.414225" y2="258.110786"  fill="none" stroke ="green" stroke-width="1" />
<line x1="352.460559" y1="368.171866" x2="353.868196" y2="350.584437"  fill="none" stroke ="green" stroke-width="1" />
<line x1="130.110825" y1="363.040086" x2="131.441295" y2="374.569299"  fill="none" stroke ="green" stroke-width="1" />
<line x1="157.943657" y1="30.620971" x2="158.471715" y2="6.854930"  fill="none" stroke ="green" stroke-width="1" />
<line x1="161.292950" y1="50.645980" x2="160.929728" y2="40.568961"  fill="none" stroke ="green" stroke-width="1" />
<path d="M 359.661391,212.290891 A15.221211,15.221211 0.000000 0,1 359.530772,192.607600" fill="none" stroke ="blue" stroke-width="1" />
<path d="M 108.896958,304.958023 A40.319163,40.319163 0.000000 0,1 106.195998,321.465442" fill="none" stroke ="blue" stroke-width="1" />
<path d="M 281.827186,48.171616 A373.040012,373.040012 0.000000 0,1 278.609157,73.262116" fill="none" stroke ="blue" stroke-width="1" />
<line x1="495.906927" y1="293.075343" x2="496.778824" y2="341.921342"  fill="none" stroke ="green" stroke-width="1" />
<line x1="444.989017" y1="478.239226" x2="446.605610" y2="451.858492"  fill="none" stroke ="green" stroke-width="1" />
<line x1="133.808693" y1="382.052370" x2="149.007679" y2="391.740185"  fill="none" stroke ="green" stroke-width="1" />
<line x1="58.546384" y1="0.687123" x2="56.328836" y2="15.728765"  fill="none" stroke ="green" stroke-width="1" />
<path d="M 340.416390,-0.110370 A67.008393,67.008393 0.000000 0,1 337.575990,22.480264" fill="none" stroke ="blue" stroke-width="1" />
<line x1="305.038576" y1="114.270379" x2="306.829897" y2="125.632111"  fill="none" stroke ="green" stroke-width="1" />
<line x1="495.025276" y1="369.265034" x2="496.123381" y2="388.240831"  fill="none" stroke ="green" stroke-width="1" />
<path d="M 358.805787,0.018954 A265.085883,265.085883 0.000000 0,1 357.473347,21.048943" fill="none" stroke ="blue" stroke-width="1" />
<line x1="344.667157" y1="0.447471" x2="342.438015" y2="28.170271"  fill="none" stroke ="green" stroke-width="1" />
<line x1="85.651836" y1="324.376105" x2="86.321792" y2="308.102226"  fill="none" stroke ="green" stroke-width="1" />
<line x1="286.243328" y1="62.945561" x2="291.747391" y2="81.912032"  fill="none" stroke ="green" stroke-width="1" />
<line x1="531.834360" y1="401.875842" x2="531.212179" y2="371.862828"  fill="none" stroke ="green" stroke-width="1" />
<line x1="129.096129" y1="33.105947" x2="131.317877" y2="0.586937"  fill="none" stroke ="green" stroke-width="1" />
<path d="M 64.856369,323.005554 A2916.334202,2916.334202 0.000000 0,1 66.691851,391.004722" fill="none" stroke ="blue" stroke-width="1" />
<line x1="362.441699" y1="75.519513" x2="356.652072" y2="44.416497"  fill="none" stroke ="green" stroke-width="1" />
<path d="M 565.911562,303.001210 A503.571499,503.571499 0.000000 0,1 567.306769,258.023268" fill="none" stroke ="blue" stroke-width="1" />
<path d="M 70.525003,466.001103 A56.890312,56.890312 0.000000 0,1 76.594894,440.299315" fill="none" stroke ="blue" stroke-width="1" />
<line x1="420.770657" y1="180.539714" x2="427.271726" y2="191.642707"  fill="none" stroke ="green" stroke-width="1" />
<line x1="318.227909" y1="195.780708" x2="320.083204" y2="209.448544"  fill="none" stroke ="green" stroke-width="1" />
<path d="M 332.012939,363.007501 A1043.634863,1043.634863 0.000000 0,1 324.438276,375.861466" fill="none" stroke ="blue" stroke-width="1" />
<line x1="496.566884" y1="369.047764" x2="495.402725" y2="374.590843"  fill="none" stroke ="green" stroke-width="1" />
<line x1="391.360817" y1="454.172890" x2="397.952842" y2="478.172287"  fill="none" stroke ="green" stroke-width="1" />
<line x1="64.958389" y1="274.374802" x2="64.974483" y2="321.875220"  fill="none" stroke ="green" stroke-width="1" />
<line x1="289.217891" y1="133.615468" x2="297.898299" y2="114.273261"  fill="none" stroke ="green" stroke-width="1" />
<line x1="267.478473" y1="173.086492" x2="265.805170" y2="146.863503"  fill="none" stroke ="green" stroke-width="1" />
<line x1="365.850533" y1="273.828472" x2="374.649612" y2="277.459539"  fill="none" stroke ="green" stroke-width="1" />
<line x1="380.548881" y1="346.787671" x2="395.883422" y2="333.421478"  fill="none" stroke ="green" stroke-width="1" />
<path d="M 348.487038,86.376386 A8.300558,8.300558 0.000000 0,1 348.630176,73.183359" fill="none" stroke ="blue" stroke-width="1" />
<line x1="206.619057" y1="135.840949" x2="218.690393" y2="150.147958"  fill="none" stroke ="green" stroke-width="1" />
<line x1="429.663887" y1="143.134639" x2="411.033753" y2="147.407295"  fill="none" stroke ="green" stroke-width="1" />
<line x1="393.259526" y1="296.569717" x2="389.728501" y2="309.471746"  fill="none" stroke ="green" stroke-width="1" />
<line x1="362.180717" y1="0.641128" x2="361.059298" y2="21.897912"  fill="none" stroke ="green" stroke-width="1" />
<line x1="34.967304" y1="364.304317" x2="37.208521" y2="383.085199"  fill="none" stroke ="green" stroke-width="1" />
<line x1="100.419742" y1="478.233566" x2="97.888170" y2="444.299415"  fill="none" stroke ="green" stroke-width="1" />
<path d="M 494.946031,291.826338 A561.506182,561.506182 0.000000 0,1 496.299824,221.024707" fill="none" stroke ="blue" stroke-width="1" />
<line x1="37.465976" y1="311.841710" x2="36.892768" y2="323.189041"  fill="none" stroke ="green" stroke-width="1" />
<line x1="449.908023" y1="368.818387" x2="440.972780" y2="360.261829"  fill="none" stroke ="green" stroke-width="1" />
<line x1="216.875177" y1="46.875060" x2="220.296462" y2="36.763834"  fill="none" stroke ="green" stroke-width="1" />
<line x1="293.738783" y1="82.018500" x2="288.935774" y2="60.724069"  fill="none" stroke ="green" stroke-width="1" />
<line x1="53.324191" y1="65.639599" x2="51.488388" y2="90.688277"  fill="none" stroke ="green" stroke-width="1" />
<path d="M 323.068458,452.283890 A274.700111,274.700111 0.000000 0,1 315.206987,477.076594" fill="none" stroke ="blue" stroke-width="1" />
<line x1="206.325624" y1="314.708200" x2="197.043172" y2="294.958454"  fill="none" stroke ="green" stroke-width="1" />
<path d="M 177.525641,398.264348 A24.814610,24.814610 0.000000 0,1 187.040202,388.067812" fill="none" stroke ="blue" stroke-width="1" />
<line x1="349.408924" y1="448.454470" x2="325.587413" y2="448.740081"  fill="none" stroke ="green" stroke-width="1" />
<line x1="574.761099" y1="115.653145" x2="576.217938" y2="95.668223"  fill="none" stroke ="green" stroke-width="1" />
<path d="M 255.757898,230.965463 A23.820822,23.820822 0.000000 0,1 280.013630,210.518224" fill="none" stroke ="blue" stroke-width="1" />
<line x1="495.989280" y1="281.142118" x2="495.100156" y2="288.216144"  fill="none" stroke ="green" stroke-width="1" />
<line x1="357.873901" y1="386.821366" x2="358.747497" y2="403.091576"  fill="none" stroke ="green" stroke-width="1" />
<line x1="531.782200" y1="430.623180" x2="532.321812" y2="403.109248"  fill="none" stroke ="green" stroke-width="1" />
<path d="M 261.887524,-0.033953 A232.597358,232.597358 0.000000 0,1 250.764033,29.435117" fill="none" stroke ="blue" stroke-width="1" />
<path d="M 129.625019,105.131919 A21.888922,21.888922 0.000000 0,1 150.004043,85.061409" fill="none" stroke ="blue" stroke-width="1" />
<line x1="159.377036" y1="146.765057" x2="145.608608" y2="146.510053"  fill="none" stroke ="green" stroke-width="1" />
<line x1="578.440954" y1="35.638120" x2="579.893952" y2="0.646549"  fill="none" stroke ="green" stroke-width="1" />
<line x1="272.739753" y1="161.076198" x2="270.134479" y2="173.287041"  fill="none" stroke ="green" stroke-width="1" />
<path d="M 422.968095,458.013920 A49.077840,49.077840 0.000000 0,1 427.058715,476.999234" fill="none" stroke ="blue" stroke-width="1" />
<path d="M 77.085017,441.204767 A20.313312,20.313312 0.000000 0,1 95.569277,442.695511" fill="none" stroke ="blue" stroke-width="1" />
<line x1="562.767210" y1="355.698841" x2="564.119947" y2="339.353891"  fill="none" stroke ="green" stroke-width="1" />
<line x1="414.643573" y1="449.475762" x2="404.053459" y2="447.000893"  fill="none" stroke ="green" stroke-width="1" />
<path d="M 443.170821,447.121580 A933.213710,933.213710 0.000000 0,1 411.865013,449.113276" fill="none" stroke ="blue" stroke-width="1" />
<path d="M 352.408297,247.214950 A30.268206,30.268206 0.000000 0,1 350.603331,235.957404" fill="none" stroke ="blue" stroke-width="1" />
<path d="M 491.907235,407.267135 A26.118456,26.118456 0.000000 0,1 508.062704,440.361997" fill="none" stroke ="blue" stroke-width="1" />
<line x1="425.932854" y1="465.574471" x2="427.796503" y2="476.928917"  fill="none" stroke ="green" stroke-width="1" />
<line x1="402.032892" y1="449.852406" x2="392.652825" y2="447.935445"  fill="none" stroke ="green" stroke-width="1" />
<line x1="121.935625" y1="461.784685" x2="146.689595" y2="478.401201"  fill="none" stroke ="green" stroke-width="1" />
<line x1="440.098858" y1="0.574847" x2="437.478612" y2="28.063385"  fill="none" stroke ="green" stroke-width="1" />
<line x1="577.311368" y1="61.851112" x2="577.971390" y2="39.370490"  fill="none" stroke ="green" stroke-width="1" />
<path d="M 206.041196,304.642506 A7.636426,7.636426 0.000000 0,1 202.596158,295.010750" fill="none" stroke ="blue" stroke-width="1" />
<path d="M 378.814487,360.492869 A37.075037,37.075037 0.000000 0,1 419.924202,333.521655" fill="none" stroke ="blue" stroke-width="1" />
<line x1="238.287327" y1="105.581316" x2="241.363601" y2="117.012622"  fill="none" stroke ="green" stroke-width="1" />
<line x1="176.873210" y1="447.450018" x2="159.373380" y2="447.395542"  fill="none" stroke ="green" stroke-width="1" />
<line x1="389.453735" y1="449.498864" x2="366.715306" y2="447.909075"  fill="none" stroke ="green" stroke-width="1" />
<line x1="525.360419" y1="299.433994" x2="526.562401" y2="279.356286"  fill="none" stroke ="green" stroke-width="1" />
<path d="M 268.884067,407.011417 A19.884913,19.884913 0.000000 0,1 274.727613,392.726821" fill="none" stroke ="blue" stroke-width="1" />
<line x1="505.121878" y1="458.140867" x2="505.594464" y2="473.125963"  fill="none" stroke ="green" stroke-width="1" />
<line x1="230.900042" y1="127.155459" x2="239.326517" y2="129.545905"  fill="none" stroke ="green" stroke-width="1" />
<line x1="367.054064" y1="446.788666" x2="358.100726" y2="449.288045"  fill="none" stroke ="green" stroke-width="1" />
<line x1="93.094173" y1="11.879108" x2="94.938153" y2="25.716529"  fill="none" stroke ="green" stroke-width="1" />
<path d="M 94.088038,219.624767 A42.142479,42.142479 0.000000 0,1 87.072286,231.062143" fill="none" stroke ="blue" stroke-width="1" />
<line x1="493.391954" y1="22.498691" x2="501.221911" y2="10.208910"  fill="none" stroke ="green" stroke-width="1" />
<line x1="286.837824" y1="64.383812" x2="289.215016" y2="74.412921"  fill="none" stroke ="green" stroke-width="1" />
</svg>
